# xmcd CD database file
#
# Track frame offsets:
#	225
#	4521
#	28712
#	42473
#	49916
#	67133
#	76715
#	91742
#	97384
#	117768
#	130441
#	146734
#	151114
#	173853
#	186142
#	206755
#	220684
#	241998
#	251345
#	256185
#	268166
#	279925
#	287800
#	298750
#	303631
#	313704
#
# Disc length: 4388 seconds
#
# Revision: 0
# Processed by: cddbd v1.4PL0 Copyright (c) Steve Scherf et al.
# Submitted via: CDex 1.40Release
#
DISCID=8311211a
DTITLE=Bob Wills And His Texas Playboys - Harmony Park Airshots January 1953
DYEAR=1953
DGENRE=Country
TTITLE0=San Antonio Rose With Introduction
TTITLE1=In The Mood
TTITLE2=Jambalaya
TTITLE3=Crumpled Turkey
TTITLE4=Dusty Skies
TTITLE5=Yearning
TTITLE6=Rock-A-Bye Baby Blues
TTITLE7=Draggin' The Bow
TTITLE8=Deep Water
TTITLE9=Corinne Corinna
TTITLE10=Dreamy Eyes Waltz
TTITLE11=San Antonio Rose
TTITLE12=Silver Bell
TTITLE13=Texas Plains
TTITLE14=Mean  Woman With The Green Eyes
TTITLE15=Don't Let The Stars Get In Your Eyes
TTITLE16=Faded Love
TTITLE17=Yearning
TTITLE18=Billy In The Low Ground
TTITLE19=Fool Fool Fool
TTITLE20=Mama Inez
TTITLE21=Done And Gone
TTITLE22=Sitting On Top Of The World
TTITLE23=Hog In The Door
TTITLE24=Please Don't Leave Me
TTITLE25=Texas Playboy Theme/Beaumont Rag
EXTD=YEAR: 1953 ID3G: 2
EXTT0=
EXTT1=
EXTT2=
EXTT3=
EXTT4=
EXTT5=
EXTT6=
EXTT7=
EXTT8=
EXTT9=
EXTT10=
EXTT11=
EXTT12=
EXTT13=
EXTT14=
EXTT15=
EXTT16=
EXTT17=
EXTT18=
EXTT19=
EXTT20=
EXTT21=
EXTT22=
EXTT23=
EXTT24=
EXTT25=
PLAYORDER=
